<svg xmlns="http://www.w3.org/2000/svg" width="1712.9744" height="1712.9745" viewBox="0 0 1712.9744 1712.9745"><defs><style>.cls-1{fill:#e4003e;}</style></defs><g id="Layer_2" data-name="Layer 2"><g id="Design_BLue_And_Red_Up_Down_Arrow_Icon" data-name="Design BLue And Red Up Down Arrow Icon"><path class="cls-1" d="M1712.9744,856.4876c0,472.275-384.2119,856.4869-856.4787,856.4869C384.2208,1712.9745,0,1328.7626,0,856.4876S384.2208,0,856.4957,0C1328.7625,0,1712.9744,384.2121,1712.9744,856.4876Zm-1561.1892,0c0,388.57,316.1365,704.7063,704.7105,704.7063,388.5659,0,704.7024-316.1366,704.7024-704.7063,0-388.5748-316.1365-704.7023-704.7024-704.7023C467.9217,151.7853,151.7852,467.9128,151.7852,856.4876Z"/><polygon class="cls-1" points="501.309 1270.86 856.486 1034.076 1211.665 1270.86 1211.665 1034.076 856.486 797.291 501.309 1034.076 501.309 1270.86"/><polygon class="cls-1" points="501.309 915.684 856.486 678.894 1211.665 915.684 1211.665 678.894 856.486 442.115 501.309 678.894 501.309 915.684"/></g></g></svg>