<?xml version="1.0" encoding="utf-8"?>
<!-- Generator: Adobe Illustrator 24.1.1, SVG Export Plug-In . SVG Version: 6.00 Build 0)  -->
<svg version="1.1" id="Layer_1" xmlns="http://www.w3.org/2000/svg" xmlns:xlink="http://www.w3.org/1999/xlink" x="0px" y="0px"
	 viewBox="0 0 512 512" style="enable-background:new 0 0 512 512;" xml:space="preserve">
<g id="XMLID_4_">
	<path id="XMLID_6_" class="st0" d="M103.4,221.4c41,80.9,107.3,146.3,187.2,187.2l62.4-62.4c7.8-7.8,19.5-9.8,29.3-6.8
		c32.2,10.7,66.3,16.6,101.4,16.6c15.6,0,28.3,12.7,28.3,28.3v99.5c0,15.6-12.7,28.3-28.3,28.3C216.5,512,0,295.5,0,28.3
		C0,12.7,12.7,0,28.3,0h99.5C143.4,0,156,12.7,156,28.3c0,35.1,5.9,69.2,16.6,101.4c2.9,9.8,1,21.5-6.8,29.3L103.4,221.4z"/>
</g>
</svg>
